<?xml version="1.0" standalone="no"?><!DOCTYPE svg PUBLIC "-//W3C//DTD SVG 1.1//EN" "http://www.w3.org/Graphics/SVG/1.1/DTD/svg11.dtd"><svg t="1618059025314" class="icon" viewBox="0 0 1024 1024" version="1.1" xmlns="http://www.w3.org/2000/svg" p-id="7958" xmlns:xlink="http://www.w3.org/1999/xlink" width="200" height="200"><defs><style type="text/css"></style></defs><path d="M443.85313719 597.99166011l-58.76249344-58.49061938c-80.56874156-80.94374156-80.56874156-211.7812275 0-292.73434312L560.83437406 71.29484136c80.64374156-80.75624156 211.4906025-80.84999156 292.24684406-0.20625l0.20625 0.20625 78.08436657 78.08436656c80.75624156 80.64374156 80.84999156 211.4906025 0.20625 292.24684406l-0.20625 0.20625-97.39686469 97.66873875c-16.21874812 15.98437312-42.27187031 15.98437312-58.49061844 0-16.15312312-15.95624813-16.31249813-41.98124531-0.35625-58.13436844l0.35625-0.35625 97.39686469-97.66873968c48.45936938-48.29999437 48.58124438-126.74061094 0.28125-175.19060625l-0.28125-0.28125-78.08436656-78.08436657c-48.29999437-48.45936938-126.74061094-48.58124438-175.19060625-0.28125l-0.28125 0.28125-175.47185625 175.47185625c-48.53436937 48.44061938-48.60936937 127.04998594-0.16875 175.58435625l0.16875 0.16875 58.49061843 58.49061844c15.58124812 16.72499813 14.65312313 42.90937031-2.0625 58.49061938-15.89999812 14.81249813-40.53749531 14.81249813-56.42811843 0z" p-id="7959" fill="#8a8a8a"></path><path d="M170.71254125 910.03850136l-78.08436656-78.08436657c-80.75624156-80.64374156-80.84999156-211.4906025-0.20625-292.24684406l0.20625-0.20625 97.39686468-97.66873875c16.21874812-15.98437312 42.27187031-15.98437312 58.49061844 0 16.15312312 15.95624813 16.31249813 41.98124531 0.35625 58.13436844l-0.35625 0.35625-97.39686469 97.66873969c-48.45936938 48.29999437-48.58124438 126.74061094-0.28125 175.19060625l0.28125 0.28125 78.08436657 78.08436656c48.29999437 48.45936938 126.74061094 48.58124438 175.19060625 0.28125l0.28125-0.28125 175.47185625-175.47185625c48.53436937-48.44061938 48.60936937-127.04998594 0.16875-175.58435625l-0.16875-0.16875-58.49061844-58.49061844c-15.98437312-16.21874812-15.98437312-42.27187031 0-58.49061937 15.95624813-16.15312312 41.98124531-16.31249813 58.13436844-0.35625l0.35625 0.35625 58.76249343 58.49061937c80.56874156 80.94374156 80.56874156 211.7812275 0 292.73434313L463.16563531 910.03850136c-80.64374156 80.75624156-211.4906025 80.84999156-292.24684406 0.20625l-0.20625-0.20625z" p-id="7960" fill="#8a8a8a"></path></svg>