<svg xmlns="http://www.w3.org/2000/svg" viewBox="0 0 498.53 500"><defs><style>.cls-1{fill:#2aa8de;}.cls-2{fill:#fff;}</style></defs><g id="图层_2" data-name="图层 2"><g id="图层_1-2" data-name="图层 1"><path class="cls-1" d="M419.12,500H79.41A79.08,79.08,0,0,1,0,420.59V79.41A79.08,79.08,0,0,1,79.41,0H419.12a79.08,79.08,0,0,1,79.41,79.41V419.12C498.53,464.71,463.24,500,419.12,500Z"/><path class="cls-2" d="M413.24,316.18c-2.95-35.3-26.48-64.71-39.71-80.89,1.47-4.41,5.88-29.41-13.24-47v-1.48c0-69.11-50-120.58-111.76-120.58s-111.77,50-111.77,120.58v1.48c-17.64,17.64-13.23,42.64-10.29,47C113.24,250,88.24,280.88,86.76,316.18c0,8.82,1.48,23.53,5.89,29.41,5.88,7.35,20.59-1.47,32.35-25,2.94,10.29,10.29,27.94,26.47,48.53-26.47,5.88-33.82,32.35-25,47.06,5.88,10.29,20.59,17.64,45.59,17.64,44.12,0,63.23-11.76,72.06-20.58a10.63,10.63,0,0,1,14.7,0c8.83,8.82,27.94,20.58,72.06,20.58,25,0,39.71-8.82,45.59-17.64,8.82-14.71,1.47-41.18-25-47.06,16.18-20.59,23.53-38.24,26.47-48.53,10.3,23.53,26.47,32.35,32.35,25,1.47-5.88,2.95-20.59,2.95-29.41Z"/></g></g></svg>