<svg xmlns="http://www.w3.org/2000/svg" viewBox="0 0 390.63 390.63"><defs><style>.cls-1{fill:#3fcf77;}.cls-2{fill:#8ce2ad;}.cls-3{fill:#fff;}</style></defs><g id="图层_2" data-name="图层 2"><g id="图层_1-2" data-name="图层 1"><path class="cls-1" d="M341.93,390.63H48.7A48.79,48.79,0,0,1,0,341.93V48.7A48.79,48.79,0,0,1,48.7,0H341.93a48.79,48.79,0,0,1,48.7,48.7V341.93A48.8,48.8,0,0,1,341.93,390.63Z"/><path class="cls-2" d="M204.43,238.28c0,27.35-27.87,49.48-62.5,49.48a75.67,75.67,0,0,1-20.58-2.86c-3.12-.79-18.23,11.71-21.09,10.67-3.12-1.3,5.47-16.92,2.6-18.49-14.32-9.11-23.43-22.91-23.43-38.8,0-27.34,27.86-49.48,62.5-49.48s62.5,22.14,62.5,49.48Z"/><path class="cls-3" d="M308.59,184.9c0,26.56-15.62,50-39.58,64.58-3.91,2.34,12.76,26,8.33,27.86-4.16,1.83-29.42-18.23-34.11-16.92a110.64,110.64,0,0,1-29.69,3.9c-52.6,0-95-35.67-95-79.42s42.45-79.43,95.05-79.43S308.59,141.15,308.59,184.9Z"/><path class="cls-1" d="M170.57,170.57a10.42,10.42,0,0,0,20.84,0v0a10.42,10.42,0,0,0-20.84,0Z"/><path class="cls-1" d="M111.2,227.86a7.29,7.29,0,1,0,7.29-7.29A7.29,7.29,0,0,0,111.2,227.86Z"/><path class="cls-1" d="M235.68,170.57a10.42,10.42,0,1,0,20.83,0h0a10.42,10.42,0,0,0-20.83,0Z"/></g></g></svg>