<?xml version="1.0" standalone="no"?><!DOCTYPE svg PUBLIC "-//W3C//DTD SVG 1.1//EN" "http://www.w3.org/Graphics/SVG/1.1/DTD/svg11.dtd"><svg t="1629858940595" class="icon" viewBox="0 0 1024 1024" version="1.1" xmlns="http://www.w3.org/2000/svg" p-id="15035" xmlns:xlink="http://www.w3.org/1999/xlink" width="200" height="200"><defs><style type="text/css"></style></defs><path d="M512 0C229.232 0 0 229.232 0 512s229.232 512 512 512 512-229.232 512-512S794.768 0 512 0z m163.648 518.656v48.528h-118.304v43.2h118.304v48.512h-118.304v112.992h-97.04v-112.992h-116.976v-48.512h116.976v-43.2h-116.976v-48.528H438.4l-113.6-225.984h101.024l43.872 107.68c12.544 33.248 25.168 66.464 39.104 99.696h3.328q19.936-50.848 39.872-99.696l43.872-107.68h97.728L579.2 518.656z" fill="#F7A46B" p-id="15036"></path></svg>